<svg width="24" height="25" viewBox="0 0 24 25" fill="none" xmlns="http://www.w3.org/2000/svg">
<path d="M12 0.820312C18.6274 0.820312 24 6.1929 24 12.8203C24 19.4477 18.6274 24.8203 12 24.8203C5.37258 24.8203 0 19.4477 0 12.8203C0 6.1929 5.37258 0.820312 12 0.820312ZM15.1562 10.5664C13.7127 10.5665 13.066 11.3597 12.7051 11.916V10.7588H9.98535C10.0212 11.5271 9.98535 18.9297 9.98535 18.9297H12.7051V14.3662C12.7051 14.122 12.723 13.878 12.7949 13.7031C12.9915 13.2153 13.4392 12.7109 14.1904 12.7109C15.1748 12.711 15.5683 13.4597 15.5684 14.5576V18.9287H18.2881V14.2441C18.2881 11.7345 16.9458 10.5664 15.1562 10.5664ZM5.76074 18.9287H8.48047V10.7578H5.76074V18.9287ZM7.13867 6.82031C6.20844 6.82031 5.59972 7.4304 5.59961 8.23145C5.59961 9.016 6.19053 9.64355 7.10352 9.64355H7.12012C8.06835 9.64355 8.65918 9.016 8.65918 8.23145C8.64143 7.43045 8.06881 6.82038 7.13867 6.82031Z" fill="white"/>
</svg>
